<?xml version="1.0" encoding="UTF-8"?>
<svg version="1.1" xmlns="http://www.w3.org/2000/svg" width="1080" height="1080">
<path d="M0 0 C8.13844369 5.58546976 14.80602962 12.53625447 21.73999023 19.50621033 C23.13494712 20.90101105 24.53034583 22.29537002 25.92614651 23.68932635 C29.75085847 27.51151149 33.56931936 31.33988839 37.38678312 35.16931093 C41.50861825 39.30185235 45.63625922 43.42858757 49.76321411 47.55601501 C56.91119758 54.70635932 64.05556574 61.86029944 71.19754028 69.01664543 C81.53180868 79.37160987 91.87207782 89.72056842 102.21393049 100.06795699 C119.00416585 116.86727706 135.79013772 133.67085104 152.57324219 150.47729492 C153.58759088 151.49305119 154.60193967 152.50880736 155.61628854 153.52456344 C156.11886634 154.02783884 156.62144414 154.53111424 157.13925157 155.04964041 C159.68182104 157.59573862 162.22439275 160.14183459 164.76696777 162.68792725 C165.52320771 163.44521487 165.52320771 163.44521487 166.29472522 164.21780124 C178.00439582 175.94365129 189.71534743 187.66822159 201.42675781 199.39233398 C201.92843199 199.89455428 202.43010618 200.39677458 202.94698261 200.91421368 C214.40435927 212.38404029 225.86233428 223.85326874 237.32148743 235.32132053 C237.80332027 235.80352877 238.28515311 236.28573701 238.78158695 236.78255762 C243.11635611 241.1206935 247.45114938 245.45880529 251.78606951 249.79679031 C263.05239739 261.07108722 274.3167984 272.34730268 285.57775521 283.6269647 C292.64142408 290.70220256 299.70678739 297.77574519 306.77348399 304.84795897 C310.85067293 308.92847883 314.92700812 313.0098426 319.00113297 317.09342194 C322.73200479 320.83293615 326.4651841 324.57013067 330.20019066 328.305515 C331.54955713 329.65584571 332.89807069 331.00702937 334.24563396 332.35915958 C343.01382786 341.16172766 343.01382786 341.16172766 352.24487305 349.47178668 C355.44887279 352.26155358 358.4200033 355.28607419 361.41589355 358.29563904 C362.11693285 358.99582391 362.81797215 359.69600879 363.54025507 360.41741139 C365.8671046 362.74262588 368.19038372 365.07137399 370.51367188 367.40014648 C372.18949252 369.07624945 373.8655339 370.75213176 375.54177856 372.42781067 C380.07645961 376.96220551 384.60805681 381.49967088 389.13909721 386.03770328 C393.39944496 390.30415974 397.66259002 394.56782039 401.92547923 398.83173717 C410.36406304 407.27250494 418.80041528 415.71549944 427.23535156 424.15991211 C435.42492906 432.35868072 443.6155652 440.55638937 451.80761719 448.75268555 C452.56614838 449.51161082 452.56614838 449.51161082 453.34000343 450.28586792 C455.87711322 452.82428283 458.41424373 455.36267703 460.95138454 457.90106094 C481.97080249 478.93083108 502.98655633 499.96426014 524 521 C522.65181793 523.79289721 521.39267532 525.856975 519.19381714 528.05342102 C518.62205246 528.62938019 518.05028778 529.20533936 517.4611969 529.79875183 C516.83575485 530.41857437 516.21031281 531.03839691 515.56591797 531.67700195 C514.90547989 532.33933838 514.24504181 533.0016748 513.56459045 533.68408203 C511.37864626 535.87373211 509.18557945 538.05609364 506.9921875 540.23828125 C505.46684912 541.76242693 503.94188087 543.2869431 502.41726685 544.81181335 C499.21745998 548.01005534 496.01432041 551.20490868 492.80859375 554.3972168 C488.71489321 558.47399242 484.62774048 562.557254 480.54287529 566.64288044 C477.39117737 569.79430524 474.23687014 572.94310741 471.08169937 576.09105492 C469.57494189 577.59464568 468.06877569 579.09882923 466.56322861 580.60363197 C464.44812788 582.71654413 462.32975313 584.82611923 460.21044922 586.93481445 C459.59715256 587.5485643 458.9838559 588.16231415 458.35197449 588.79466248 C455.43566022 591.68984819 452.47628201 594.47861982 449.35101509 597.1477232 C444.63647581 601.25778751 440.22713717 605.63998457 435.81567383 610.07080078 C434.92426854 610.96205721 434.03286325 611.85331364 433.11444569 612.77157784 C430.66017564 615.22555454 428.20901494 617.68261598 425.75837564 620.14021778 C423.10714782 622.79785486 420.45298317 625.45255616 417.79916382 628.10760498 C413.20652585 632.70312202 408.61566581 637.30040889 404.02597046 641.89886475 C397.38193648 648.55548646 390.73463555 655.20883824 384.0864526 661.86131597 C373.28797235 672.66685498 362.49136209 683.47426023 351.69628906 694.28320312 C351.05095754 694.92936246 350.40562601 695.5755218 349.74073899 696.24126172 C345.16044275 700.82745797 340.58021358 705.4137212 336 710 C330.76794991 715.23897849 325.53586947 720.47792668 320.30371094 725.71679688 C319.65917091 726.36216502 319.01463089 727.00753317 318.35055935 727.67245793 C307.59433181 738.44238282 296.83613193 749.21033544 286.0765295 759.97688866 C279.44696226 766.6109297 272.81917609 773.24674061 266.19369769 779.88486528 C261.65307889 784.43392568 257.11067985 788.98120327 252.56689095 793.52709723 C249.94790751 796.14742213 247.32975331 798.76856179 244.7138176 801.39192963 C241.8733737 804.24041274 239.02903002 807.08497041 236.18432617 809.92919922 C235.36485913 810.75226122 234.54539209 811.57532322 233.70109272 812.42332649 C229.5304985 816.58648036 225.27583387 820.57129001 220.81073582 824.41635239 C218.19752951 826.70183097 215.75745884 829.116572 213.30162048 831.57139587 C212.78519645 832.08625992 212.26877241 832.60112396 211.73669916 833.13158995 C210.03426164 834.83008948 208.33536072 836.5320797 206.63647461 838.23413086 C205.40549495 839.46375327 204.17430315 840.69316333 202.94291687 841.92237854 C199.61837884 845.2423807 196.29698417 848.56551059 192.97630382 851.88937068 C189.48973854 855.37847949 186.00072063 858.86513439 182.51210022 862.35218811 C176.65560024 868.2068722 170.801204 874.0636537 164.94799805 879.92163086 C158.19475814 886.68031226 151.43792349 893.43538384 144.6792106 900.1885919 C138.86142918 906.00182565 133.0456109 911.81701802 127.23140913 917.63383204 C123.76539594 921.1013989 120.2987234 924.56829933 116.83027458 928.0334301 C113.56857525 931.29222664 110.30935888 934.55348681 107.0519886 937.81661034 C105.86088511 939.00902855 104.66894384 940.20061064 103.47607422 941.39126205 C97.94957041 946.90844096 92.48192207 952.42678124 87.40417194 958.36718464 C85.54060482 960.53419918 83.56676799 962.5745079 81.55615234 964.60498047 C80.75776947 965.41297089 79.9593866 966.2209613 79.1368103 967.05343628 C78.29502228 967.89947418 77.45323425 968.74551208 76.5859375 969.6171875 C75.69444 970.51438507 74.8029425 971.41158264 73.88442993 972.33596802 C72.00490097 974.2248974 70.12417228 976.11254842 68.24169922 977.99853516 C66.33661284 979.90799955 64.43639228 981.82210275 62.54052734 983.74072266 C30.49961166 1016.13795782 30.49961166 1016.13795782 14.375 1017.25 C4.60698913 1017.051022 -2.46578579 1012.88323857 -10 1007 C-10.56589844 1006.57589844 -11.13179688 1006.15179687 -11.71484375 1005.71484375 C-14.49711987 1003.53773114 -16.80233354 1001.12672639 -19.07641602 998.44750977 C-23.36687287 993.50677803 -27.95900774 988.89724778 -32.58984375 984.27734375 C-33.94487755 982.92087486 -33.94487755 982.92087486 -35.32728577 981.53700256 C-37.22796068 979.63565057 -39.12959608 977.73532447 -41.03295898 975.83666992 C-43.45118392 973.42414139 -45.86488958 971.00714919 -48.27727413 968.58878231 C-50.60818401 966.25335425 -52.94293956 963.92177823 -55.27734375 961.58984375 C-56.13279282 960.73237045 -56.98824188 959.87489716 -57.86961365 958.99143982 C-62.21510733 954.66269817 -66.6194676 950.47451938 -71.28663635 946.49317932 C-73.99642422 944.13162624 -76.49242246 941.5723332 -79 939 C-82.86983397 935.07680574 -86.80818811 931.3457321 -91.0078125 927.7734375 C-94.34320797 924.80428153 -97.42519327 921.58181657 -100.5625 918.40625 C-102.65000635 916.34550655 -104.77169223 914.40484374 -107 912.5 C-111.07063741 909.02026157 -114.78519395 905.22971164 -118.546875 901.421875 C-121.3198291 898.68424516 -124.21264317 896.13765697 -127.171875 893.60546875 C-129.9153931 891.19609709 -132.45085082 888.61287791 -135 886 C-133.63009152 882.93092973 -132.07282447 880.82340477 -129.70028687 878.45304871 C-128.67856384 877.42503395 -128.67856384 877.42503395 -127.63619995 876.37625122 C-126.51569748 875.26417801 -126.51569748 875.26417801 -125.37255859 874.12963867 C-124.19170685 872.94593941 -124.19170685 872.94593941 -122.98699951 871.73832703 C-120.37900882 869.12662726 -117.7638769 866.52220749 -115.1484375 863.91796875 C-113.33163604 862.10235969 -111.51520441 860.28638049 -109.6991272 858.470047 C-105.88730139 854.65978657 -102.07225991 850.85279182 -98.25439453 847.04858398 C-93.85684707 842.66671101 -89.46449607 838.27968531 -85.07514703 833.88960093 C-80.83922179 829.65306215 -76.6003749 825.41946264 -72.36006546 821.18731117 C-70.5630325 819.39344966 -68.76659511 817.59899132 -66.9707756 815.80391502 C-64.45095048 813.28627277 -61.92784973 810.77195956 -59.40380859 808.25854492 C-58.66895233 807.52323547 -57.93409607 806.78792603 -57.17697144 806.03033447 C-56.47890381 805.33653183 -55.78083618 804.64272919 -55.06161499 803.92790222 C-54.46689077 803.33485385 -53.87216656 802.74180548 -53.25942039 802.13078594 C-51.30998716 800.29233881 -49.32105921 798.54146691 -47.29211712 796.79253769 C-42.75827139 792.84394796 -38.50833219 788.6475554 -34.26451111 784.39149475 C-32.99984877 783.1291724 -32.99984877 783.1291724 -31.7096377 781.84134859 C-29.39069443 779.52568387 -27.0739802 777.2078167 -24.75823247 774.88895714 C-22.25217654 772.38062664 -19.74322989 769.87519027 -17.23466492 767.36936951 C-12.32902861 762.46816794 -7.42608515 757.5642812 -2.52411812 752.65941007 C1.4616833 748.67134558 5.4484654 744.68426391 9.4359417 740.69787407 C10.00456113 740.12940787 10.57318057 739.56094166 11.1590309 738.97524921 C12.31435828 737.82024157 13.46968789 736.66523617 14.62501972 735.51023298 C25.44549966 724.69260111 36.26291857 713.87191246 47.07928478 703.05016755 C56.35003129 693.77495362 65.62339644 684.50236459 74.89868164 675.23168945 C85.68305397 664.45267477 96.46579432 653.67203182 107.24595445 642.88880438 C108.39659224 641.73784806 109.5472321 640.58689383 110.69787407 639.4359417 C111.2639359 638.86972559 111.82999773 638.30350949 112.41321294 637.72013532 C116.39257098 633.7399157 120.37308441 629.76085384 124.35405159 625.78224373 C129.20884604 620.9302607 134.06184075 616.07648603 138.91257293 611.22044165 C141.38509751 608.74529816 143.85839783 606.27094386 146.33389282 603.7987709 C149.02208332 601.11332008 151.70716328 598.42479635 154.39149475 595.73548889 C155.5550275 594.57530222 155.5550275 594.57530222 156.74206597 593.39167744 C177.16069831 572.8997615 200.96567487 546.3796376 202.5 516 C201.12759762 489.61445743 183.38290231 468.22919008 166.3359375 449.58203125 C164.46763232 447.51689793 162.64435355 445.42712439 160.82702637 443.31774902 C157.18622596 439.15504837 153.35611117 435.22797256 149.43164062 431.33398438 C148.7103447 430.61414871 147.98904877 429.89431305 147.24589539 429.15266418 C145.69310046 427.60364893 144.1391523 426.055789 142.58415222 424.50898743 C140.11769509 422.05539621 137.6544649 419.59860532 135.1920166 417.14099121 C129.96415293 411.92450667 124.73237122 406.71196275 119.5 401.5 C113.43256496 395.45623053 107.36678261 389.4108215 101.30522156 383.36116028 C98.88835615 380.95073725 96.46847913 378.54336643 94.04846191 376.1361084 C92.55494518 374.64622705 91.06157027 373.15620351 89.56835938 371.66601562 C88.57064766 370.67605339 88.57064766 370.67605339 87.55278015 369.66609192 C84.46651148 366.58016828 81.48861078 363.45391137 78.6424408 360.14442444 C74.37611345 355.2075806 69.76969418 350.6298843 65.15258789 346.02319336 C64.1791203 345.04836756 63.20586488 344.07332986 62.23280334 343.09809875 C59.61111961 340.47189059 56.9863241 337.84881405 54.36078572 335.22646022 C51.60038149 332.46860554 48.84243816 329.70829153 46.08409119 326.94837952 C41.45344562 322.3159198 36.8207075 317.68556063 32.18676758 313.05639648 C26.84590659 307.72097665 21.50865732 302.3819642 16.17326933 297.04107183 C11.57446521 292.43771506 6.97369688 287.83632821 2.37131113 283.2365523 C-0.3696671 280.49712503 -3.10998447 277.75704586 -5.84852409 275.01518059 C-8.42443243 272.43636216 -11.0028157 269.86004306 -13.58304787 267.28555107 C-14.96910761 265.9014225 -16.3527375 264.51486198 -17.73626709 263.12820435 C-22.12239444 258.75676079 -26.57433776 254.54210236 -31.27011967 250.50515079 C-33.55014462 248.52132492 -35.69122313 246.42150509 -37.8203125 244.27734375 C-38.6747998 243.41955322 -39.52928711 242.5617627 -40.40966797 241.67797852 C-41.30572754 240.77362061 -42.20178711 239.8692627 -43.125 238.9375 C-44.0805937 237.97748625 -45.03649184 237.01777547 -45.99267578 236.05834961 C-49.50550592 232.53229527 -53.01280573 229.0007571 -56.52026367 225.46936035 C-59.49665517 222.47308792 -62.47519157 219.47897769 -65.45648193 216.48757935 C-66.83653133 215.1011466 -68.21347744 213.71162702 -69.59033203 212.32202148 C-73.9803096 207.91507342 -78.42870971 203.6680853 -83.1479187 199.61608887 C-86.17056899 196.97858506 -89.02466191 194.17670027 -91.87890625 191.359375 C-92.49467026 190.75168274 -93.11043427 190.14399048 -93.74485779 189.5178833 C-95.03439114 188.24205676 -96.32247007 186.96475859 -97.60913086 185.68603516 C-98.90870735 184.39799097 -100.21274128 183.11442825 -101.52124023 181.83544922 C-109.05883016 174.46716894 -116.02631403 167.42024293 -121 158 C-121.3501416 157.35498535 -121.7002832 156.7099707 -122.06103516 156.04541016 C-124.116876 151.83087732 -124.50749436 147.73851734 -124.4375 143.125 C-124.42992676 142.42173584 -124.42235352 141.71847168 -124.41455078 140.99389648 C-124.22724386 135.07185334 -122.99370973 131.00679017 -120 126 C-119.61650391 125.34845947 -119.23300781 124.69691895 -118.83789062 124.02563477 C-114.86141778 117.68274451 -109.91289169 112.51730713 -104.58740234 107.30615234 C-103.12723606 105.87718828 -101.67804929 104.43779579 -100.23046875 102.99609375 C-95.61623549 98.42075429 -90.91685511 94.0001752 -85.98828125 89.765625 C-81.97473493 86.20153278 -78.22258965 82.36571459 -74.4375 78.5625 C-73.62603516 77.75490234 -72.81457031 76.94730469 -71.97851562 76.11523438 C-67.68312121 71.81290631 -63.56552278 67.42878661 -59.60180664 62.82006836 C-57.19308565 60.08313573 -54.6094329 57.54372154 -52 55 C-48.03336235 51.08746404 -44.25414849 47.10438804 -40.640625 42.859375 C-38.21397553 40.10917227 -35.58513769 37.57611823 -32.97265625 35.00390625 C-30.42662171 32.41753849 -28.07978443 29.6846472 -25.71484375 26.93359375 C-24.03995701 25.04505403 -22.30052413 23.26844352 -20.5 21.5 C-18.10722509 19.14966899 -15.86808888 16.735776 -13.6875 14.1875 C-9.39196642 9.19565846 -4.69639902 4.61135356 0 0 Z " fill="#FCFCFC" transform="translate(373,32)"/>
<path d="M0 0 C0.33 0 0.66 0 1 0 C1 5.61 1 11.22 1 17 C-10.25 17.26785714 -10.25 17.26785714 -14 15 C-14 14.01 -14 13.02 -14 12 C-11.69921875 10.09765625 -11.69921875 10.09765625 -8.6875 8.0625 C-5.10251318 5.63033247 -2.46452857 3.56519181 0 0 Z " fill="#FCFCFC" transform="translate(1079,282)"/>
<path d="M0 0 C0.66 0.33 1.32 0.66 2 1 C1.01 2.485 1.01 2.485 0 4 C-0.99 3.67 -1.98 3.34 -3 3 C-2.01 2.01 -1.02 1.02 0 0 Z " fill="#FCFCFC" transform="translate(997,863)"/>
<path d="M0 0 C0.66 0.33 1.32 0.66 2 1 C1.01 1 0.02 1 -1 1 C-0.67 0.67 -0.34 0.34 0 0 Z " fill="#FCFCFC" transform="translate(1008,230)"/>
</svg>
